# xmcd
#
# Track frame offsets:
#	150
#	14634
#	22494
#	35345
#	42861
#	55410
#	60871
#	75297
#	84269
#	89681
#	102839
#	109465
#	117075
#	127967
#	137314
#	149549
#	158570
#	167177
#	174362
#	179573
#	190364
#	205145
#	222560
#	234002
#	240728
#
# Disc length: 3423 seconds
#
# Revision: 1
# Processed by: cddbd v1.5.2PL0 Copyright (c) Steve Scherf et al.
# Submitted via: audiograbber 1.83.01
#
DISCID=550d5d19
DTITLE=Various Artist - Die 50 schönsten deutschen Volkslieder 2
DYEAR=1900
DGENRE=Volksmusik
TTITLE0=Männerchor des Leipziger Rundfunks - Das Wandern ist des Müllers Lust
TTITLE1=Dresdner Kreuzchor - Frühlingsgruß (So sei gegrüßt viel tausendmal)
TTITLE2=Thomanerchor Leipzig - Du liegst mir am Herzen
TTITLE3=Hermann Prey - Mein Mädel hat einen Rosenmund
TTITLE4=Männerchor des Leipziger Rundfunks - Loreley (Ich weiß nicht was soll e
TTITLE4=s bedeuten)
TTITLE5=Dresdner Kreuzchor - Nun will der Lenz uns grüßen 
TTITLE6=Männerchor des Leipziger Rundfunks - Muss i denn zum Städtele hinaus
TTITLE7=Dresdner Kreuzchor - Frühlingsahnung
TTITLE8=Thomanerchor Leipzig - Zwischen Berg und tieffem Tal (Von den zwei Hase
TTITLE8=n) 
TTITLE9=Männerchor des Rundfunkchores Berlin - Der Jäger Abschied (Wer hat dich
TTITLE9=, du schöner Wald)
TTITLE10=Hermann Prey - Erlaube mir, feins Mädchen 
TTITLE11=Rundfunk-Jugendchor Wemingerode - Mädele ruck, ruck, ruck an meine rec
TTITLE11=hte Seite
TTITLE12=Dresdner Kreuzchor - Es flog ein kleines Waldvögelein
TTITLE13=Peter Schreier - Du schönes Fischermädchen
TTITLE14=Männerchor des Leipziger Rundfunks - Im Krug zum grünen Kranze
TTITLE15=Hermann Prey - Die Lore am Tore
TTITLE16=Thomanerchor Leipzig - Die Nachtigal, sie war entfernt
TTITLE17=Männerchor des Leipzige Dresdner Kreuzchor - Der Mai ist gekommen
TTITLE18=Dresdner Kreuzchor - Zum Tanze da geht ein Mädel
TTITLE19=Hermann Prey - Der Baum im Odenwald
TTITLE20=Männerchor des Leipzige Dresdner Kreuzchor - Als wir jüngst in Regensb
TTITLE20=urg waren
TTITLE21=Rundfunk-Jugendchor Wemingerode - Es waren zwei Königskinder
TTITLE22=Dresdner Kreuzchor - Bei nächtlicher Weil
TTITLE23=Regensburger Domspatzen - Nun Ruhen Alle Wälder
TTITLE24=Männerchor des Leipziger Rundfunks - Es löscht das Meer die Sonne aus 
TTITLE24=(Schifferlied)
EXTD=
EXTT0=
EXTT1=
EXTT2=
EXTT3=
EXTT4=
EXTT5=
EXTT6=
EXTT7=
EXTT8=
EXTT9=
EXTT10=
EXTT11=
EXTT12=
EXTT13=
EXTT14=
EXTT15=
EXTT16=
EXTT17=
EXTT18=
EXTT19=
EXTT20=
EXTT21=
EXTT22=
EXTT23=
EXTT24=
PLAYORDER=
